<?xml version="1.0" encoding="UTF-8"?>
<svg width="3300px" height="2200px" viewBox="0 0 3300 2200" version="1.1" xmlns="http://www.w3.org/2000/svg" xmlns:xlink="http://www.w3.org/1999/xlink">
    <title>ulta.circle.information</title>
    <g id="Page-1" stroke="none" stroke-width="1" fill="none" fill-rule="evenodd">
        <g id="ulta.circle.information">
            <g id="Notes">
                <rect id="artboard" fill="#FFFFFF" fill-rule="nonzero" x="0" y="0" width="3300" height="2200"></rect>
                <line x1="263" y1="292" x2="3036" y2="292" id="Path" stroke="#000000" stroke-width="0.5"></line>
                <text id="Weight/Scale-Variations" fill="#000000" fill-rule="nonzero" font-family="Helvetica-Bold, Helvetica" font-size="13" font-weight="bold">
                    <tspan x="263" y="322">Weight/Scale Variations</tspan>
                </text>
                <text id="Ultralight" fill="#000000" fill-rule="nonzero" font-family="Helvetica" font-size="13" font-weight="normal">
                    <tspan x="533.711" y="322">Ultralight</tspan>
                </text>
                <text id="Thin" fill="#000000" fill-rule="nonzero" font-family="Helvetica" font-size="13" font-weight="normal">
                    <tspan x="843.422" y="322">Thin</tspan>
                </text>
                <text id="Light" fill="#000000" fill-rule="nonzero" font-family="Helvetica" font-size="13" font-weight="normal">
                    <tspan x="1138.63" y="322">Light</tspan>
                </text>
                <text id="Regular" fill="#000000" fill-rule="nonzero" font-family="Helvetica" font-size="13" font-weight="normal">
                    <tspan x="1426.84" y="322">Regular</tspan>
                </text>
                <text id="Medium" fill="#000000" fill-rule="nonzero" font-family="Helvetica" font-size="13" font-weight="normal">
                    <tspan x="1723.06" y="322">Medium</tspan>
                </text>
                <text id="Semibold" fill="#000000" fill-rule="nonzero" font-family="Helvetica" font-size="13" font-weight="normal">
                    <tspan x="2015.77" y="322">Semibold</tspan>
                </text>
                <text id="Bold" fill="#000000" fill-rule="nonzero" font-family="Helvetica" font-size="13" font-weight="normal">
                    <tspan x="2326.48" y="322">Bold</tspan>
                </text>
                <text id="Heavy" fill="#000000" fill-rule="nonzero" font-family="Helvetica" font-size="13" font-weight="normal">
                    <tspan x="2618.19" y="322">Heavy</tspan>
                </text>
                <text id="Black" fill="#000000" fill-rule="nonzero" font-family="Helvetica" font-size="13" font-weight="normal">
                    <tspan x="2917.4" y="322">Black</tspan>
                </text>
                <line x1="263" y1="1903" x2="3036" y2="1903" id="Path" stroke="#000000" stroke-width="0.5"></line>
                <g id="Group" transform="translate(264.367190, 1918.068400)" fill="#000000" fill-rule="nonzero">
                    <path d="M7.88086,15.761678 C12.18751,15.761678 15.77151,12.18746 15.77151,7.88082 C15.77151,3.5742 12.17771,0 7.87109,0 C3.57422,0 -2.99874823e-25,3.5742 -2.99874823e-25,7.88082 C-2.99874823e-25,12.18746 3.58398,15.761678 7.88086,15.761678 Z M7.88086,14.277303 C4.33593,14.277303 1.5039,11.43551 1.5039,7.88082 C1.5039,4.3261 4.32617,1.4843 7.87109,1.4843 C11.42581,1.4843 14.26761,4.3261 14.2773852,7.88082 C14.28711,11.43551 11.43551,14.277303 7.88086,14.277303 Z M5.02929,8.61324 L7.13867,8.61324 L7.13867,10.73238 C7.13867,11.17183 7.43164,11.47457 7.86133,11.47457 C8.31054,11.47457 8.60351,11.17183 8.60351,10.73238 L8.60351,8.61324 L10.73241,8.61324 C11.17191,8.61324 11.47461,8.32027 11.47461,7.89058 C11.47461,7.45113 11.17191,7.1484 10.73241,7.1484 L8.60351,7.1484 L8.60351,5.03902 C8.60351,4.5898 8.31054,4.2871 7.86133,4.2871 C7.43164,4.2871 7.13867,4.5898 7.13867,5.03902 L7.13867,7.1484 L5.02929,7.1484 C4.58008,7.1484 4.27734,7.45113 4.27734,7.89058 C4.27734,8.32027 4.58008,8.61324 5.02929,8.61324 Z" id="Shape"></path>
                </g>
                <g id="Group" transform="translate(283.254050, 1915.988300)" fill="#000000" fill-rule="nonzero">
                    <path d="M9.96095,19.92186 C15.41015,19.92186 19.92185,15.40037 19.92185,9.96092 C19.92185,4.5117 15.40035,0 9.95115,0 C4.51172,0 -8.88178419e-16,4.5117 -8.88178419e-16,9.96092 C-8.88178419e-16,15.40037 4.52148,19.92186 9.96095,19.92186 Z M9.96095,18.2617 C5.35156,18.2617 1.66992,14.57029 1.66992,9.96092 C1.66992,5.3515 5.34179,1.6601 9.95115,1.6601 C14.56055,1.6601 18.25195,5.3515 18.2618068,9.96092 C18.27145,14.57029 14.57035,18.2617 9.96095,18.2617 Z M6.24023,10.78123 L9.13085,10.78123 L9.13085,13.69139 C9.13085,14.17967 9.46285,14.5117 9.94145,14.5117 C10.42965,14.5117 10.77145,14.17967 10.77145,13.69139 L10.77145,10.78123 L13.68165,10.78123 C14.16995,10.78123 14.50195,10.4492 14.50195,9.97068 C14.50195,9.4824 14.16995,9.14061 13.68165,9.14061 L10.77145,9.14061 L10.77145,6.25 C10.77145,5.7422 10.42965,5.4101 9.94145,5.4101 C9.46285,5.4101 9.13085,5.7519 9.13085,6.25 L9.13085,9.14061 L6.24023,9.14061 C5.73242,9.14061 5.40039,9.4824 5.40039,9.97068 C5.40039,10.4492 5.74218,10.78123 6.24023,10.78123 Z" id="Shape"></path>
                </g>
                <g id="Group" transform="translate(307.179860, 1913.224600)" fill="#000000" fill-rule="nonzero">
                    <path d="M12.71484,25.43946 C19.67774,25.43946 25.43944,19.6777438 25.43944,12.72462 C25.43944,5.7617 19.66794,0 12.70504,0 C5.75195,0 0,5.7617 0,12.72462 C0,19.6777438 5.76172,25.43946 12.71484,25.43946 Z M12.71484,23.62306 C6.67969,23.62306 1.82617,18.75978 1.82617,12.72462 C1.82617,6.6797 6.66992,1.8262 12.70504,1.8262 C18.75004,1.8262 23.60354,6.6797 23.6132842,12.72462 C23.62304,18.75978 18.75974,23.62306 12.71484,23.62306 Z M7.80274,13.63282 L11.80664,13.63282 L11.80664,17.64649 C11.80664,18.1836 12.17774,18.5547 12.69534,18.5547 C13.23244,18.5547 13.60354,18.1836 13.60354,17.64649 L13.60354,13.63282 L17.62694,13.63282 C18.15434,13.63282 18.53514,13.26173 18.53514,12.74415 C18.53514,12.20704 18.16404,11.82618 17.62694,11.82618 L13.60354,11.82618 L13.60354,7.8223 C13.60354,7.2656 13.23244,6.8945 12.69534,6.8945 C12.17774,6.8945 11.80664,7.2754 11.80664,7.8223 L11.80664,11.82618 L7.80274,11.82618 C7.24609,11.82618 6.875,12.20704 6.875,12.74415 C6.875,13.26173 7.25586,13.63282 7.80274,13.63282 Z" id="Shape"></path>
                </g>
                <text id="Design-Variations" fill="#000000" fill-rule="nonzero" font-family="Helvetica-Bold, Helvetica" font-size="13" font-weight="bold">
                    <tspan x="263" y="1953">Design Variations</tspan>
                </text>
                <text id="Symbols-are-supported-in-up-to-nine-weights-and-three-scales." fill="#000000" fill-rule="nonzero" font-family="Helvetica" font-size="13" font-weight="normal">
                    <tspan x="263" y="1971">Symbols are supported in up to nine weights and three scales.</tspan>
                </text>
                <text id="For-optimal-layout-with-text-and-other-symbols,-vertically-align" fill="#000000" fill-rule="nonzero" font-family="Helvetica" font-size="13" font-weight="normal">
                    <tspan x="263" y="1989">For optimal layout with text and other symbols, vertically align</tspan>
                </text>
                <text id="symbols-with-the-adjacent-text." fill="#000000" fill-rule="nonzero" font-family="Helvetica" font-size="13" font-weight="normal">
                    <tspan x="263" y="2007">symbols with the adjacent text.</tspan>
                </text>
                <line x1="776" y1="1919" x2="776" y2="1933" id="Path" stroke="#00AEEF" stroke-width="0.5"></line>
                <g id="Group" transform="translate(778.490230, 1918.712900)" fill="#000000" fill-rule="nonzero">
                    <path d="M0.82032,14.414053 C1.33789,14.414053 1.5918,14.2187406 1.77735,13.681631 L3.03711,10.2246 L8.79887,10.2246 L10.05857,13.681631 C10.24417,14.2187406 10.49807,14.414053 11.00587,14.414053 C11.52347,14.414053 11.85547,14.101553 11.85547,13.613272 C11.85547,13.447256 11.82617,13.300772 11.74807,13.08593 L7.16797,0.8984 C6.94336,0.293 6.54297,0 5.91797,0 C5.3125,0 4.90235,0.293 4.6875,0.8887 L0.10743,13.09569 C0.0293,13.310538 4.4408921e-16,13.457022 4.4408921e-16,13.623038 C4.4408921e-16,14.111319 0.3125,14.414053 0.82032,14.414053 Z M3.51563,8.74999 L5.88868,2.1777 L5.9375,2.1777 L8.31057,8.74999 L3.51563,8.74999 Z" id="Shape"></path>
                </g>
                <line x1="792.836" y1="1919" x2="792.836" y2="1933" id="Path" stroke="#00AEEF" stroke-width="0.5"></line>
                <text id="Margins" fill="#000000" fill-rule="nonzero" font-family="Helvetica-Bold, Helvetica" font-size="13" font-weight="bold">
                    <tspan x="776" y="1953">Margins</tspan>
                </text>
                <text id="Leading-and-trailing-margins-on-the-left-and-right-side-of-each-symbol" fill="#000000" fill-rule="nonzero" font-family="Helvetica" font-size="13" font-weight="normal">
                    <tspan x="776" y="1971">Leading and trailing margins on the left and right side of each symbol</tspan>
                </text>
                <text id="can-be-adjusted-by-modifying-the-x-location-of-the-margin-guidelines." fill="#000000" fill-rule="nonzero" font-family="Helvetica" font-size="13" font-weight="normal">
                    <tspan x="776" y="1989">can be adjusted by modifying the x-location of the margin guidelines.</tspan>
                </text>
                <text id="Modifications-are-automatically-applied-proportionally-to-all" fill="#000000" fill-rule="nonzero" font-family="Helvetica" font-size="13" font-weight="normal">
                    <tspan x="776" y="2007">Modifications are automatically applied proportionally to all</tspan>
                </text>
                <text id="scales-and-weights." fill="#000000" fill-rule="nonzero" font-family="Helvetica" font-size="13" font-weight="normal">
                    <tspan x="776" y="2025">scales and weights.</tspan>
                </text>
                <g id="Group" transform="translate(1291.248126, 1914.517396)" fill="#000000" fill-rule="nonzero">
                    <path d="M0.593673634,20.347834 L2.29289363,22.056824 C3.15226363,22.925964 4.13859363,22.867374 5.06632363,21.841984 L15.2420736,10.631044 C15.5057736,10.718934 15.7791736,10.699404 16.0916736,10.640804 L17.1561736,10.445494 L17.8202736,11.119324 L17.7811736,11.675964 C17.7420736,12.174014 17.8690736,12.554874 18.3573736,13.033384 L19.1190736,13.775574 C19.5975736,14.254084 20.2127736,14.283384 20.6815736,13.814634 L23.5916736,10.894714 C24.0604736,10.425964 24.0409736,9.83026404 23.5623736,9.35174404 L22.7909736,8.59002404 C22.3123736,8.11150404 21.9413736,7.95530404 21.4627736,7.99430404 L20.8866736,8.04310404 L20.2420736,7.40840404 L20.4862736,6.28530404 C20.6131736,5.71890404 20.4569736,5.27950404 19.8709736,4.69350404 L17.6737736,2.50600404 C14.3338736,-0.814295965 9.90027363,-0.736195965 7.00968363,2.15450404 C6.58976363,2.56460404 6.56046363,3.14080404 6.79484363,3.53140404 C7.02921363,3.89280404 7.48820363,4.12710404 8.13277363,3.96110404 C9.59757363,3.61930404 11.1209736,3.56070404 12.5467736,4.49820404 L11.9608736,5.95330404 C11.7655736,6.43180404 11.7362736,6.83220404 11.8631736,7.19350404 L0.798753634,17.584166 C-0.187576366,18.5021352 -0.265706366,19.478698 0.593673634,20.347834 Z M8.50387363,2.52560404 C10.9354736,0.748204035 14.2264736,1.05100404 16.4530736,3.27750404 L18.8846736,5.68960404 C19.1190736,5.92400404 19.1580736,6.10960404 19.0897736,6.45140404 L18.7674736,7.93570404 L20.2713736,9.42010404 L21.2577736,9.36151404 C21.5116736,9.35174404 21.5897736,9.37127404 21.7850736,9.56658404 L22.3612736,10.142764 L19.9198736,12.584164 L19.3436736,12.007994 C19.1483736,11.812684 19.1190736,11.734554 19.1288736,11.470884 L19.1971736,10.494324 L17.7030736,9.00994404 L16.1795736,9.26385404 C15.8573736,9.33221404 15.7108736,9.30291404 15.4666736,9.06854404 L13.4647736,7.06660404 C13.2108736,6.83220404 13.1815736,6.66620404 13.3377736,6.29510404 L14.2166736,4.20530404 C12.6541736,2.75020404 10.6229736,2.12520404 8.59167363,2.72090404 C8.43547363,2.75990404 8.37687363,2.63300404 8.50387363,2.52560404 Z M3.02531363,20.787304 L1.85343363,19.625184 C1.38468363,19.166198 1.49210363,18.824401 1.89249363,18.4630728 L12.7030736,8.28730404 L14.1678736,9.77166404 L4.17765363,20.757994 C3.82609363,21.158384 3.49406363,21.256044 3.02531363,20.787304 Z" id="Shape"></path>
                </g>
                <text id="Exporting" fill="#000000" fill-rule="nonzero" font-family="Helvetica-Bold, Helvetica" font-size="13" font-weight="bold">
                    <tspan x="1289" y="1953">Exporting</tspan>
                </text>
                <text id="Symbols-should-be-outlined-when-exporting-to-ensure-the" fill="#000000" fill-rule="nonzero" font-family="Helvetica" font-size="13" font-weight="normal">
                    <tspan x="1289" y="1971">Symbols should be outlined when exporting to ensure the</tspan>
                </text>
                <text id="design-is-preserved-when-submitting-to-Xcode." fill="#000000" fill-rule="nonzero" font-family="Helvetica" font-size="13" font-weight="normal">
                    <tspan x="1289" y="1989">design is preserved when submitting to Xcode.</tspan>
                </text>
                <text id="Template-v.2.0" fill="#000000" fill-rule="nonzero" font-family="Helvetica" font-size="13" font-weight="normal">
                    <tspan x="2952" y="1933">Template v.2.0</tspan>
                </text>
                <text id="Requires-Xcode-12-or-greater" fill="#000000" fill-rule="nonzero" font-family="Helvetica" font-size="13" font-weight="normal">
                    <tspan x="2865" y="1951">Requires Xcode 12 or greater</tspan>
                </text>
                <text id="Generated-from-iOS-pencil.circle" fill="#000000" fill-rule="nonzero" font-family="Helvetica" font-size="13" font-weight="normal">
                    <tspan x="2848.14746" y="1969">Generated from iOS pencil.circle</tspan>
                </text>
                <text id="Typeset-at-100-points" fill="#000000" fill-rule="nonzero" font-family="Helvetica" font-size="13" font-weight="normal">
                    <tspan x="2912" y="1987">Typeset at 100 points</tspan>
                </text>
                <text id="Small" fill="#000000" fill-rule="nonzero" font-family="Helvetica" font-size="13" font-weight="normal">
                    <tspan x="263" y="726">Small</tspan>
                </text>
                <text id="Medium" fill="#000000" fill-rule="nonzero" font-family="Helvetica" font-size="13" font-weight="normal">
                    <tspan x="263" y="1156">Medium</tspan>
                </text>
                <text id="Large" fill="#000000" fill-rule="nonzero" font-family="Helvetica" font-size="13" font-weight="normal">
                    <tspan x="263" y="1586">Large</tspan>
                </text>
            </g>
            <g id="Guides" transform="translate(263.000000, 625.041000)">
                <g id="H-reference" transform="translate(76.976562, 0.500000)" fill="#27AAE1" fill-rule="nonzero">
                    <path d="M-1.22124533e-15,70.459 L2.685548,70.459 L12.011738,45.9961 L44.775438,45.9961 L54.150438,70.459 L56.787138,70.459 L29.638638,0 L27.148438,0 L-1.22124533e-15,70.459 Z M28.369138,3.3203 L28.466838,3.3203 L43.896438,43.75 L12.890638,43.75 L28.369138,3.3203 Z" id="Shape"></path>
                </g>
                <line x1="0" y1="70.959" x2="2773" y2="70.959" id="Baseline-S" stroke="#27AAE1" stroke-width="0.5"></line>
                <line x1="0" y1="0.5" x2="2773" y2="0.5" id="Capline-S" stroke="#27AAE1" stroke-width="0.5"></line>
                <g id="H-reference" transform="translate(76.976562, 430.500000)" fill="#27AAE1" fill-rule="nonzero">
                    <path d="M-1.22124533e-15,70.459 L2.685548,70.459 L12.011738,45.9961 L44.775438,45.9961 L54.150438,70.459 L56.787138,70.459 L29.638638,0 L27.148438,0 L-1.22124533e-15,70.459 Z M28.369138,3.3203 L28.466838,3.3203 L43.896438,43.75 L12.890638,43.75 L28.369138,3.3203 Z" id="Shape"></path>
                </g>
                <line x1="0" y1="500.959" x2="2773" y2="500.959" id="Baseline-M" stroke="#27AAE1" stroke-width="0.5"></line>
                <line x1="0" y1="430.499" x2="2773" y2="430.499" id="Capline-M" stroke="#27AAE1" stroke-width="0.5"></line>
                <g id="H-reference" transform="translate(76.976562, 860.500000)" fill="#27AAE1" fill-rule="nonzero">
                    <path d="M-1.22124533e-15,70.459 L2.685548,70.459 L12.011738,45.9961 L44.775438,45.9961 L54.150438,70.459 L56.787138,70.459 L29.638638,0 L27.148438,0 L-1.22124533e-15,70.459 Z M28.369138,3.3203 L28.466838,3.3203 L43.896438,43.75 L12.890638,43.75 L28.369138,3.3203 Z" id="Shape"></path>
                </g>
                <line x1="0" y1="930.959" x2="2773" y2="930.959" id="Baseline-L" stroke="#27AAE1" stroke-width="0.5"></line>
                <line x1="0" y1="860.499" x2="2773" y2="860.499" id="Capline-L" stroke="#27AAE1" stroke-width="0.5"></line>
                <line x1="1128.3" y1="405.749" x2="1128.3" y2="525.079" id="left-margin" stroke="#00AEEF" stroke-width="0.5"></line>
                <line x1="1245.39" y1="405.749" x2="1245.39" y2="525.079" id="right-margin" stroke="#00AEEF" stroke-width="0.5"></line>
            </g>
            <g id="Symbols" transform="translate(508.500000, 630.000000)" fill="#000000" fill-rule="nonzero">
                <g id="Black-L" transform="translate(2373.000000, 839.500000)">
                    <path d="M51.5,-1.42108547e-14 C79.9426646,-1.42108547e-14 103,23.0573354 103,51.5 C103,79.9426646 79.9426646,103 51.5,103 C23.0573354,103 0,79.9426646 0,51.5 C0,23.0573354 23.0573354,-1.42108547e-14 51.5,-1.42108547e-14 Z M51.5,6.4375 C26.6126685,6.4375 6.4375,26.6126685 6.4375,51.5 C6.4375,76.3873315 26.6126685,96.5625 51.5,96.5625 C76.3873315,96.5625 96.5625,76.3873315 96.5625,51.5 C96.5625,26.6126685 76.3873315,6.4375 51.5,6.4375 Z M48.28125,41.84375 C51.6274458,41.84375 54.3773422,44.3968114 54.6892809,47.6612758 L54.71875,48.28125 L54.71875,64.375 C54.71875,66.0045277 55.9296604,67.351232 57.5007347,67.5643666 L57.9375,67.59375 L61.15625,67.59375 C62.9339165,67.59375 64.375,69.0348335 64.375,70.8125 C64.375,72.4420277 63.1640896,73.788732 61.5930153,74.0018666 L61.15625,74.03125 L57.9375,74.03125 C52.8267087,74.03125 48.6432739,70.0607648 48.3035272,65.0361261 L48.28125,64.375 L48.28125,48.28125 L45.0625,48.28125 C43.2848335,48.28125 41.84375,46.8401665 41.84375,45.0625 C41.84375,43.4329723 43.0546604,42.086268 44.6257347,41.8731334 L45.0625,41.84375 L48.28125,41.84375 Z M49.890625,25.75 L50.4167024,25.7783308 C52.8357343,26.0404606 54.71875,28.0893918 54.71875,30.578125 C54.71875,33.2446248 52.5571248,35.40625 49.890625,35.40625 C47.2241252,35.40625 45.0625,33.2446248 45.0625,30.578125 C45.0625,28.0893918 46.9455157,26.0404606 49.3645476,25.7783308 L49.890625,25.75 Z" id="-Icon-Color"></path>
                </g>
                <g id="Heavy-L" transform="translate(2077.000000, 839.500000)">
                    <path d="M51.5,-1.42108547e-14 C79.9426646,-1.42108547e-14 103,23.0573354 103,51.5 C103,79.9426646 79.9426646,103 51.5,103 C23.0573354,103 0,79.9426646 0,51.5 C0,23.0573354 23.0573354,-1.42108547e-14 51.5,-1.42108547e-14 Z M51.5,6.4375 C26.6126685,6.4375 6.4375,26.6126685 6.4375,51.5 C6.4375,76.3873315 26.6126685,96.5625 51.5,96.5625 C76.3873315,96.5625 96.5625,76.3873315 96.5625,51.5 C96.5625,26.6126685 76.3873315,6.4375 51.5,6.4375 Z M48.28125,41.84375 C51.6274458,41.84375 54.3773422,44.3968114 54.6892809,47.6612758 L54.71875,48.28125 L54.71875,64.375 C54.71875,66.0045277 55.9296604,67.351232 57.5007347,67.5643666 L57.9375,67.59375 L61.15625,67.59375 C62.9339165,67.59375 64.375,69.0348335 64.375,70.8125 C64.375,72.4420277 63.1640896,73.788732 61.5930153,74.0018666 L61.15625,74.03125 L57.9375,74.03125 C52.8267087,74.03125 48.6432739,70.0607648 48.3035272,65.0361261 L48.28125,64.375 L48.28125,48.28125 L45.0625,48.28125 C43.2848335,48.28125 41.84375,46.8401665 41.84375,45.0625 C41.84375,43.4329723 43.0546604,42.086268 44.6257347,41.8731334 L45.0625,41.84375 L48.28125,41.84375 Z M49.890625,25.75 L50.4167024,25.7783308 C52.8357343,26.0404606 54.71875,28.0893918 54.71875,30.578125 C54.71875,33.2446248 52.5571248,35.40625 49.890625,35.40625 C47.2241252,35.40625 45.0625,33.2446248 45.0625,30.578125 C45.0625,28.0893918 46.9455157,26.0404606 49.3645476,25.7783308 L49.890625,25.75 Z" id="-Icon-Color"></path>
                </g>
                <g id="Bold-L" transform="translate(1780.000000, 839.500000)">
                    <path d="M51.5,-1.42108547e-14 C79.9426646,-1.42108547e-14 103,23.0573354 103,51.5 C103,79.9426646 79.9426646,103 51.5,103 C23.0573354,103 0,79.9426646 0,51.5 C0,23.0573354 23.0573354,-1.42108547e-14 51.5,-1.42108547e-14 Z M51.5,6.4375 C26.6126685,6.4375 6.4375,26.6126685 6.4375,51.5 C6.4375,76.3873315 26.6126685,96.5625 51.5,96.5625 C76.3873315,96.5625 96.5625,76.3873315 96.5625,51.5 C96.5625,26.6126685 76.3873315,6.4375 51.5,6.4375 Z M48.28125,41.84375 C51.6274458,41.84375 54.3773422,44.3968114 54.6892809,47.6612758 L54.71875,48.28125 L54.71875,64.375 C54.71875,66.0045277 55.9296604,67.351232 57.5007347,67.5643666 L57.9375,67.59375 L61.15625,67.59375 C62.9339165,67.59375 64.375,69.0348335 64.375,70.8125 C64.375,72.4420277 63.1640896,73.788732 61.5930153,74.0018666 L61.15625,74.03125 L57.9375,74.03125 C52.8267087,74.03125 48.6432739,70.0607648 48.3035272,65.0361261 L48.28125,64.375 L48.28125,48.28125 L45.0625,48.28125 C43.2848335,48.28125 41.84375,46.8401665 41.84375,45.0625 C41.84375,43.4329723 43.0546604,42.086268 44.6257347,41.8731334 L45.0625,41.84375 L48.28125,41.84375 Z M49.890625,25.75 L50.4167024,25.7783308 C52.8357343,26.0404606 54.71875,28.0893918 54.71875,30.578125 C54.71875,33.2446248 52.5571248,35.40625 49.890625,35.40625 C47.2241252,35.40625 45.0625,33.2446248 45.0625,30.578125 C45.0625,28.0893918 46.9455157,26.0404606 49.3645476,25.7783308 L49.890625,25.75 Z" id="-Icon-Color"></path>
                </g>
                <g id="Semibold-L" transform="translate(1483.000000, 839.500000)">
                    <path d="M51.5,-1.42108547e-14 C79.9426646,-1.42108547e-14 103,23.0573354 103,51.5 C103,79.9426646 79.9426646,103 51.5,103 C23.0573354,103 0,79.9426646 0,51.5 C0,23.0573354 23.0573354,-1.42108547e-14 51.5,-1.42108547e-14 Z M51.5,6.4375 C26.6126685,6.4375 6.4375,26.6126685 6.4375,51.5 C6.4375,76.3873315 26.6126685,96.5625 51.5,96.5625 C76.3873315,96.5625 96.5625,76.3873315 96.5625,51.5 C96.5625,26.6126685 76.3873315,6.4375 51.5,6.4375 Z M48.28125,41.84375 C51.6274458,41.84375 54.3773422,44.3968114 54.6892809,47.6612758 L54.71875,48.28125 L54.71875,64.375 C54.71875,66.0045277 55.9296604,67.351232 57.5007347,67.5643666 L57.9375,67.59375 L61.15625,67.59375 C62.9339165,67.59375 64.375,69.0348335 64.375,70.8125 C64.375,72.4420277 63.1640896,73.788732 61.5930153,74.0018666 L61.15625,74.03125 L57.9375,74.03125 C52.8267087,74.03125 48.6432739,70.0607648 48.3035272,65.0361261 L48.28125,64.375 L48.28125,48.28125 L45.0625,48.28125 C43.2848335,48.28125 41.84375,46.8401665 41.84375,45.0625 C41.84375,43.4329723 43.0546604,42.086268 44.6257347,41.8731334 L45.0625,41.84375 L48.28125,41.84375 Z M49.890625,25.75 L50.4167024,25.7783308 C52.8357343,26.0404606 54.71875,28.0893918 54.71875,30.578125 C54.71875,33.2446248 52.5571248,35.40625 49.890625,35.40625 C47.2241252,35.40625 45.0625,33.2446248 45.0625,30.578125 C45.0625,28.0893918 46.9455157,26.0404606 49.3645476,25.7783308 L49.890625,25.75 Z" id="-Icon-Color"></path>
                </g>
                <g id="Medium-L" transform="translate(1187.000000, 839.500000)">
                    <path d="M51.5,-1.42108547e-14 C79.9426646,-1.42108547e-14 103,23.0573354 103,51.5 C103,79.9426646 79.9426646,103 51.5,103 C23.0573354,103 0,79.9426646 0,51.5 C0,23.0573354 23.0573354,-1.42108547e-14 51.5,-1.42108547e-14 Z M51.5,6.4375 C26.6126685,6.4375 6.4375,26.6126685 6.4375,51.5 C6.4375,76.3873315 26.6126685,96.5625 51.5,96.5625 C76.3873315,96.5625 96.5625,76.3873315 96.5625,51.5 C96.5625,26.6126685 76.3873315,6.4375 51.5,6.4375 Z M48.28125,41.84375 C51.6274458,41.84375 54.3773422,44.3968114 54.6892809,47.6612758 L54.71875,48.28125 L54.71875,64.375 C54.71875,66.0045277 55.9296604,67.351232 57.5007347,67.5643666 L57.9375,67.59375 L61.15625,67.59375 C62.9339165,67.59375 64.375,69.0348335 64.375,70.8125 C64.375,72.4420277 63.1640896,73.788732 61.5930153,74.0018666 L61.15625,74.03125 L57.9375,74.03125 C52.8267087,74.03125 48.6432739,70.0607648 48.3035272,65.0361261 L48.28125,64.375 L48.28125,48.28125 L45.0625,48.28125 C43.2848335,48.28125 41.84375,46.8401665 41.84375,45.0625 C41.84375,43.4329723 43.0546604,42.086268 44.6257347,41.8731334 L45.0625,41.84375 L48.28125,41.84375 Z M49.890625,25.75 L50.4167024,25.7783308 C52.8357343,26.0404606 54.71875,28.0893918 54.71875,30.578125 C54.71875,33.2446248 52.5571248,35.40625 49.890625,35.40625 C47.2241252,35.40625 45.0625,33.2446248 45.0625,30.578125 C45.0625,28.0893918 46.9455157,26.0404606 49.3645476,25.7783308 L49.890625,25.75 Z" id="-Icon-Color"></path>
                </g>
                <g id="Regular-L" transform="translate(890.000000, 839.500000)">
                    <path d="M51.5,-1.42108547e-14 C79.9426646,-1.42108547e-14 103,23.0573354 103,51.5 C103,79.9426646 79.9426646,103 51.5,103 C23.0573354,103 0,79.9426646 0,51.5 C0,23.0573354 23.0573354,-1.42108547e-14 51.5,-1.42108547e-14 Z M51.5,6.4375 C26.6126685,6.4375 6.4375,26.6126685 6.4375,51.5 C6.4375,76.3873315 26.6126685,96.5625 51.5,96.5625 C76.3873315,96.5625 96.5625,76.3873315 96.5625,51.5 C96.5625,26.6126685 76.3873315,6.4375 51.5,6.4375 Z M48.28125,41.84375 C51.6274458,41.84375 54.3773422,44.3968114 54.6892809,47.6612758 L54.71875,48.28125 L54.71875,64.375 C54.71875,66.0045277 55.9296604,67.351232 57.5007347,67.5643666 L57.9375,67.59375 L61.15625,67.59375 C62.9339165,67.59375 64.375,69.0348335 64.375,70.8125 C64.375,72.4420277 63.1640896,73.788732 61.5930153,74.0018666 L61.15625,74.03125 L57.9375,74.03125 C52.8267087,74.03125 48.6432739,70.0607648 48.3035272,65.0361261 L48.28125,64.375 L48.28125,48.28125 L45.0625,48.28125 C43.2848335,48.28125 41.84375,46.8401665 41.84375,45.0625 C41.84375,43.4329723 43.0546604,42.086268 44.6257347,41.8731334 L45.0625,41.84375 L48.28125,41.84375 Z M49.890625,25.75 L50.4167024,25.7783308 C52.8357343,26.0404606 54.71875,28.0893918 54.71875,30.578125 C54.71875,33.2446248 52.5571248,35.40625 49.890625,35.40625 C47.2241252,35.40625 45.0625,33.2446248 45.0625,30.578125 C45.0625,28.0893918 46.9455157,26.0404606 49.3645476,25.7783308 L49.890625,25.75 Z" id="-Icon-Color"></path>
                </g>
                <g id="Light-L" transform="translate(593.000000, 839.500000)">
                    <path d="M51.5,-1.42108547e-14 C79.9426646,-1.42108547e-14 103,23.0573354 103,51.5 C103,79.9426646 79.9426646,103 51.5,103 C23.0573354,103 0,79.9426646 0,51.5 C0,23.0573354 23.0573354,-1.42108547e-14 51.5,-1.42108547e-14 Z M51.5,6.4375 C26.6126685,6.4375 6.4375,26.6126685 6.4375,51.5 C6.4375,76.3873315 26.6126685,96.5625 51.5,96.5625 C76.3873315,96.5625 96.5625,76.3873315 96.5625,51.5 C96.5625,26.6126685 76.3873315,6.4375 51.5,6.4375 Z M48.28125,41.84375 C51.6274458,41.84375 54.3773422,44.3968114 54.6892809,47.6612758 L54.71875,48.28125 L54.71875,64.375 C54.71875,66.0045277 55.9296604,67.351232 57.5007347,67.5643666 L57.9375,67.59375 L61.15625,67.59375 C62.9339165,67.59375 64.375,69.0348335 64.375,70.8125 C64.375,72.4420277 63.1640896,73.788732 61.5930153,74.0018666 L61.15625,74.03125 L57.9375,74.03125 C52.8267087,74.03125 48.6432739,70.0607648 48.3035272,65.0361261 L48.28125,64.375 L48.28125,48.28125 L45.0625,48.28125 C43.2848335,48.28125 41.84375,46.8401665 41.84375,45.0625 C41.84375,43.4329723 43.0546604,42.086268 44.6257347,41.8731334 L45.0625,41.84375 L48.28125,41.84375 Z M49.890625,25.75 L50.4167024,25.7783308 C52.8357343,26.0404606 54.71875,28.0893918 54.71875,30.578125 C54.71875,33.2446248 52.5571248,35.40625 49.890625,35.40625 C47.2241252,35.40625 45.0625,33.2446248 45.0625,30.578125 C45.0625,28.0893918 46.9455157,26.0404606 49.3645476,25.7783308 L49.890625,25.75 Z" id="-Icon-Color"></path>
                </g>
                <g id="Thin-L" transform="translate(296.000000, 839.500000)">
                    <path d="M51.5,-1.42108547e-14 C79.9426646,-1.42108547e-14 103,23.0573354 103,51.5 C103,79.9426646 79.9426646,103 51.5,103 C23.0573354,103 0,79.9426646 0,51.5 C0,23.0573354 23.0573354,-1.42108547e-14 51.5,-1.42108547e-14 Z M51.5,6.4375 C26.6126685,6.4375 6.4375,26.6126685 6.4375,51.5 C6.4375,76.3873315 26.6126685,96.5625 51.5,96.5625 C76.3873315,96.5625 96.5625,76.3873315 96.5625,51.5 C96.5625,26.6126685 76.3873315,6.4375 51.5,6.4375 Z M48.28125,41.84375 C51.6274458,41.84375 54.3773422,44.3968114 54.6892809,47.6612758 L54.71875,48.28125 L54.71875,64.375 C54.71875,66.0045277 55.9296604,67.351232 57.5007347,67.5643666 L57.9375,67.59375 L61.15625,67.59375 C62.9339165,67.59375 64.375,69.0348335 64.375,70.8125 C64.375,72.4420277 63.1640896,73.788732 61.5930153,74.0018666 L61.15625,74.03125 L57.9375,74.03125 C52.8267087,74.03125 48.6432739,70.0607648 48.3035272,65.0361261 L48.28125,64.375 L48.28125,48.28125 L45.0625,48.28125 C43.2848335,48.28125 41.84375,46.8401665 41.84375,45.0625 C41.84375,43.4329723 43.0546604,42.086268 44.6257347,41.8731334 L45.0625,41.84375 L48.28125,41.84375 Z M49.890625,25.75 L50.4167024,25.7783308 C52.8357343,26.0404606 54.71875,28.0893918 54.71875,30.578125 C54.71875,33.2446248 52.5571248,35.40625 49.890625,35.40625 C47.2241252,35.40625 45.0625,33.2446248 45.0625,30.578125 C45.0625,28.0893918 46.9455157,26.0404606 49.3645476,25.7783308 L49.890625,25.75 Z" id="-Icon-Color"></path>
                </g>
                <g id="Ultralight-L" transform="translate(0.000000, 839.500000)">
                    <path d="M51.5,-1.42108547e-14 C79.9426646,-1.42108547e-14 103,23.0573354 103,51.5 C103,79.9426646 79.9426646,103 51.5,103 C23.0573354,103 0,79.9426646 0,51.5 C0,23.0573354 23.0573354,-1.42108547e-14 51.5,-1.42108547e-14 Z M51.5,6.4375 C26.6126685,6.4375 6.4375,26.6126685 6.4375,51.5 C6.4375,76.3873315 26.6126685,96.5625 51.5,96.5625 C76.3873315,96.5625 96.5625,76.3873315 96.5625,51.5 C96.5625,26.6126685 76.3873315,6.4375 51.5,6.4375 Z M48.28125,41.84375 C51.6274458,41.84375 54.3773422,44.3968114 54.6892809,47.6612758 L54.71875,48.28125 L54.71875,64.375 C54.71875,66.0045277 55.9296604,67.351232 57.5007347,67.5643666 L57.9375,67.59375 L61.15625,67.59375 C62.9339165,67.59375 64.375,69.0348335 64.375,70.8125 C64.375,72.4420277 63.1640896,73.788732 61.5930153,74.0018666 L61.15625,74.03125 L57.9375,74.03125 C52.8267087,74.03125 48.6432739,70.0607648 48.3035272,65.0361261 L48.28125,64.375 L48.28125,48.28125 L45.0625,48.28125 C43.2848335,48.28125 41.84375,46.8401665 41.84375,45.0625 C41.84375,43.4329723 43.0546604,42.086268 44.6257347,41.8731334 L45.0625,41.84375 L48.28125,41.84375 Z M49.890625,25.75 L50.4167024,25.7783308 C52.8357343,26.0404606 54.71875,28.0893918 54.71875,30.578125 C54.71875,33.2446248 52.5571248,35.40625 49.890625,35.40625 C47.2241252,35.40625 45.0625,33.2446248 45.0625,30.578125 C45.0625,28.0893918 46.9455157,26.0404606 49.3645476,25.7783308 L49.890625,25.75 Z" id="-Icon-Color"></path>
                </g>
                <g id="Black-M" transform="translate(2384.500000, 421.000000)">
                    <path d="M40,-1.42108547e-14 C62.09139,-1.42108547e-14 80,17.90861 80,40 C80,62.09139 62.09139,80 40,80 C17.90861,80 0,62.09139 0,40 C0,17.90861 17.90861,-1.42108547e-14 40,-1.42108547e-14 Z M40,5 C20.6700338,5 5,20.6700338 5,40 C5,59.3299662 20.6700338,75 40,75 C59.3299662,75 75,59.3299662 75,40 C75,20.6700338 59.3299662,5 40,5 Z M37.5,32.5 C40.0989871,32.5 42.2348289,34.4829603 42.4771114,37.0184666 L42.5,37.5 L42.5,50 C42.5,51.2656526 43.4405129,52.3116365 44.6607648,52.4771779 L45,52.5 L47.5,52.5 C48.8807119,52.5 50,53.6192881 50,55 C50,56.2656526 49.0594871,57.3116365 47.8392352,57.4771779 L47.5,57.5 L45,57.5 C41.0304534,57.5 37.7811836,54.416128 37.5173027,50.513496 L37.5,50 L37.5,37.5 L35,37.5 C33.6192881,37.5 32.5,36.3807119 32.5,35 C32.5,33.7343474 33.4405129,32.6883635 34.6607648,32.5228221 L35,32.5 L37.5,32.5 Z M38.75,20 L39.1586038,20.0220045 C41.0374635,20.2256005 42.5,21.8170034 42.5,23.75 C42.5,25.8210678 40.8210678,27.5 38.75,27.5 C36.6789322,27.5 35,25.8210678 35,23.75 C35,21.8170034 36.4625365,20.2256005 38.3413962,20.0220045 L38.75,20 Z" id="-Icon-Color"></path>
                </g>
                <g id="Heavy-M" transform="translate(2088.500000, 421.000000)">
                    <path d="M40,-1.42108547e-14 C62.09139,-1.42108547e-14 80,17.90861 80,40 C80,62.09139 62.09139,80 40,80 C17.90861,80 0,62.09139 0,40 C0,17.90861 17.90861,-1.42108547e-14 40,-1.42108547e-14 Z M40,5 C20.6700338,5 5,20.6700338 5,40 C5,59.3299662 20.6700338,75 40,75 C59.3299662,75 75,59.3299662 75,40 C75,20.6700338 59.3299662,5 40,5 Z M37.5,32.5 C40.0989871,32.5 42.2348289,34.4829603 42.4771114,37.0184666 L42.5,37.5 L42.5,50 C42.5,51.2656526 43.4405129,52.3116365 44.6607648,52.4771779 L45,52.5 L47.5,52.5 C48.8807119,52.5 50,53.6192881 50,55 C50,56.2656526 49.0594871,57.3116365 47.8392352,57.4771779 L47.5,57.5 L45,57.5 C41.0304534,57.5 37.7811836,54.416128 37.5173027,50.513496 L37.5,50 L37.5,37.5 L35,37.5 C33.6192881,37.5 32.5,36.3807119 32.5,35 C32.5,33.7343474 33.4405129,32.6883635 34.6607648,32.5228221 L35,32.5 L37.5,32.5 Z M38.75,20 L39.1586038,20.0220045 C41.0374635,20.2256005 42.5,21.8170034 42.5,23.75 C42.5,25.8210678 40.8210678,27.5 38.75,27.5 C36.6789322,27.5 35,25.8210678 35,23.75 C35,21.8170034 36.4625365,20.2256005 38.3413962,20.0220045 L38.75,20 Z" id="-Icon-Color"></path>
                </g>
                <g id="Bold-M" transform="translate(1791.500000, 421.000000)">
                    <path d="M40,-1.42108547e-14 C62.09139,-1.42108547e-14 80,17.90861 80,40 C80,62.09139 62.09139,80 40,80 C17.90861,80 0,62.09139 0,40 C0,17.90861 17.90861,-1.42108547e-14 40,-1.42108547e-14 Z M40,5 C20.6700338,5 5,20.6700338 5,40 C5,59.3299662 20.6700338,75 40,75 C59.3299662,75 75,59.3299662 75,40 C75,20.6700338 59.3299662,5 40,5 Z M37.5,32.5 C40.0989871,32.5 42.2348289,34.4829603 42.4771114,37.0184666 L42.5,37.5 L42.5,50 C42.5,51.2656526 43.4405129,52.3116365 44.6607648,52.4771779 L45,52.5 L47.5,52.5 C48.8807119,52.5 50,53.6192881 50,55 C50,56.2656526 49.0594871,57.3116365 47.8392352,57.4771779 L47.5,57.5 L45,57.5 C41.0304534,57.5 37.7811836,54.416128 37.5173027,50.513496 L37.5,50 L37.5,37.5 L35,37.5 C33.6192881,37.5 32.5,36.3807119 32.5,35 C32.5,33.7343474 33.4405129,32.6883635 34.6607648,32.5228221 L35,32.5 L37.5,32.5 Z M38.75,20 L39.1586038,20.0220045 C41.0374635,20.2256005 42.5,21.8170034 42.5,23.75 C42.5,25.8210678 40.8210678,27.5 38.75,27.5 C36.6789322,27.5 35,25.8210678 35,23.75 C35,21.8170034 36.4625365,20.2256005 38.3413962,20.0220045 L38.75,20 Z" id="-Icon-Color"></path>
                </g>
                <g id="Semibold-M" transform="translate(1494.500000, 421.000000)">
                    <path d="M40,-1.42108547e-14 C62.09139,-1.42108547e-14 80,17.90861 80,40 C80,62.09139 62.09139,80 40,80 C17.90861,80 0,62.09139 0,40 C0,17.90861 17.90861,-1.42108547e-14 40,-1.42108547e-14 Z M40,5 C20.6700338,5 5,20.6700338 5,40 C5,59.3299662 20.6700338,75 40,75 C59.3299662,75 75,59.3299662 75,40 C75,20.6700338 59.3299662,5 40,5 Z M37.5,32.5 C40.0989871,32.5 42.2348289,34.4829603 42.4771114,37.0184666 L42.5,37.5 L42.5,50 C42.5,51.2656526 43.4405129,52.3116365 44.6607648,52.4771779 L45,52.5 L47.5,52.5 C48.8807119,52.5 50,53.6192881 50,55 C50,56.2656526 49.0594871,57.3116365 47.8392352,57.4771779 L47.5,57.5 L45,57.5 C41.0304534,57.5 37.7811836,54.416128 37.5173027,50.513496 L37.5,50 L37.5,37.5 L35,37.5 C33.6192881,37.5 32.5,36.3807119 32.5,35 C32.5,33.7343474 33.4405129,32.6883635 34.6607648,32.5228221 L35,32.5 L37.5,32.5 Z M38.75,20 L39.1586038,20.0220045 C41.0374635,20.2256005 42.5,21.8170034 42.5,23.75 C42.5,25.8210678 40.8210678,27.5 38.75,27.5 C36.6789322,27.5 35,25.8210678 35,23.75 C35,21.8170034 36.4625365,20.2256005 38.3413962,20.0220045 L38.75,20 Z" id="-Icon-Color"></path>
                </g>
                <g id="Medium-M" transform="translate(1198.500000, 421.000000)">
                    <path d="M40,-1.42108547e-14 C62.09139,-1.42108547e-14 80,17.90861 80,40 C80,62.09139 62.09139,80 40,80 C17.90861,80 0,62.09139 0,40 C0,17.90861 17.90861,-1.42108547e-14 40,-1.42108547e-14 Z M40,5 C20.6700338,5 5,20.6700338 5,40 C5,59.3299662 20.6700338,75 40,75 C59.3299662,75 75,59.3299662 75,40 C75,20.6700338 59.3299662,5 40,5 Z M37.5,32.5 C40.0989871,32.5 42.2348289,34.4829603 42.4771114,37.0184666 L42.5,37.5 L42.5,50 C42.5,51.2656526 43.4405129,52.3116365 44.6607648,52.4771779 L45,52.5 L47.5,52.5 C48.8807119,52.5 50,53.6192881 50,55 C50,56.2656526 49.0594871,57.3116365 47.8392352,57.4771779 L47.5,57.5 L45,57.5 C41.0304534,57.5 37.7811836,54.416128 37.5173027,50.513496 L37.5,50 L37.5,37.5 L35,37.5 C33.6192881,37.5 32.5,36.3807119 32.5,35 C32.5,33.7343474 33.4405129,32.6883635 34.6607648,32.5228221 L35,32.5 L37.5,32.5 Z M38.75,20 L39.1586038,20.0220045 C41.0374635,20.2256005 42.5,21.8170034 42.5,23.75 C42.5,25.8210678 40.8210678,27.5 38.75,27.5 C36.6789322,27.5 35,25.8210678 35,23.75 C35,21.8170034 36.4625365,20.2256005 38.3413962,20.0220045 L38.75,20 Z" id="-Icon-Color"></path>
                </g>
                <g id="Regular-M" transform="translate(901.500000, 421.000000)">
                    <path d="M40,-1.42108547e-14 C62.09139,-1.42108547e-14 80,17.90861 80,40 C80,62.09139 62.09139,80 40,80 C17.90861,80 0,62.09139 0,40 C0,17.90861 17.90861,-1.42108547e-14 40,-1.42108547e-14 Z M40,5 C20.6700338,5 5,20.6700338 5,40 C5,59.3299662 20.6700338,75 40,75 C59.3299662,75 75,59.3299662 75,40 C75,20.6700338 59.3299662,5 40,5 Z M37.5,32.5 C40.0989871,32.5 42.2348289,34.4829603 42.4771114,37.0184666 L42.5,37.5 L42.5,50 C42.5,51.2656526 43.4405129,52.3116365 44.6607648,52.4771779 L45,52.5 L47.5,52.5 C48.8807119,52.5 50,53.6192881 50,55 C50,56.2656526 49.0594871,57.3116365 47.8392352,57.4771779 L47.5,57.5 L45,57.5 C41.0304534,57.5 37.7811836,54.416128 37.5173027,50.513496 L37.5,50 L37.5,37.5 L35,37.5 C33.6192881,37.5 32.5,36.3807119 32.5,35 C32.5,33.7343474 33.4405129,32.6883635 34.6607648,32.5228221 L35,32.5 L37.5,32.5 Z M38.75,20 L39.1586038,20.0220045 C41.0374635,20.2256005 42.5,21.8170034 42.5,23.75 C42.5,25.8210678 40.8210678,27.5 38.75,27.5 C36.6789322,27.5 35,25.8210678 35,23.75 C35,21.8170034 36.4625365,20.2256005 38.3413962,20.0220045 L38.75,20 Z" id="-Icon-Color"></path>
                </g>
                <g id="Light-M" transform="translate(604.500000, 421.000000)">
                    <path d="M40,-1.42108547e-14 C62.09139,-1.42108547e-14 80,17.90861 80,40 C80,62.09139 62.09139,80 40,80 C17.90861,80 0,62.09139 0,40 C0,17.90861 17.90861,-1.42108547e-14 40,-1.42108547e-14 Z M40,5 C20.6700338,5 5,20.6700338 5,40 C5,59.3299662 20.6700338,75 40,75 C59.3299662,75 75,59.3299662 75,40 C75,20.6700338 59.3299662,5 40,5 Z M37.5,32.5 C40.0989871,32.5 42.2348289,34.4829603 42.4771114,37.0184666 L42.5,37.5 L42.5,50 C42.5,51.2656526 43.4405129,52.3116365 44.6607648,52.4771779 L45,52.5 L47.5,52.5 C48.8807119,52.5 50,53.6192881 50,55 C50,56.2656526 49.0594871,57.3116365 47.8392352,57.4771779 L47.5,57.5 L45,57.5 C41.0304534,57.5 37.7811836,54.416128 37.5173027,50.513496 L37.5,50 L37.5,37.5 L35,37.5 C33.6192881,37.5 32.5,36.3807119 32.5,35 C32.5,33.7343474 33.4405129,32.6883635 34.6607648,32.5228221 L35,32.5 L37.5,32.5 Z M38.75,20 L39.1586038,20.0220045 C41.0374635,20.2256005 42.5,21.8170034 42.5,23.75 C42.5,25.8210678 40.8210678,27.5 38.75,27.5 C36.6789322,27.5 35,25.8210678 35,23.75 C35,21.8170034 36.4625365,20.2256005 38.3413962,20.0220045 L38.75,20 Z" id="-Icon-Color"></path>
                </g>
                <g id="Thin-M" transform="translate(307.500000, 421.000000)">
                    <path d="M40,-1.42108547e-14 C62.09139,-1.42108547e-14 80,17.90861 80,40 C80,62.09139 62.09139,80 40,80 C17.90861,80 0,62.09139 0,40 C0,17.90861 17.90861,-1.42108547e-14 40,-1.42108547e-14 Z M40,5 C20.6700338,5 5,20.6700338 5,40 C5,59.3299662 20.6700338,75 40,75 C59.3299662,75 75,59.3299662 75,40 C75,20.6700338 59.3299662,5 40,5 Z M37.5,32.5 C40.0989871,32.5 42.2348289,34.4829603 42.4771114,37.0184666 L42.5,37.5 L42.5,50 C42.5,51.2656526 43.4405129,52.3116365 44.6607648,52.4771779 L45,52.5 L47.5,52.5 C48.8807119,52.5 50,53.6192881 50,55 C50,56.2656526 49.0594871,57.3116365 47.8392352,57.4771779 L47.5,57.5 L45,57.5 C41.0304534,57.5 37.7811836,54.416128 37.5173027,50.513496 L37.5,50 L37.5,37.5 L35,37.5 C33.6192881,37.5 32.5,36.3807119 32.5,35 C32.5,33.7343474 33.4405129,32.6883635 34.6607648,32.5228221 L35,32.5 L37.5,32.5 Z M38.75,20 L39.1586038,20.0220045 C41.0374635,20.2256005 42.5,21.8170034 42.5,23.75 C42.5,25.8210678 40.8210678,27.5 38.75,27.5 C36.6789322,27.5 35,25.8210678 35,23.75 C35,21.8170034 36.4625365,20.2256005 38.3413962,20.0220045 L38.75,20 Z" id="-Icon-Color"></path>
                </g>
                <g id="Ultralight-M" transform="translate(11.500000, 421.000000)">
                    <path d="M40,-1.42108547e-14 C62.09139,-1.42108547e-14 80,17.90861 80,40 C80,62.09139 62.09139,80 40,80 C17.90861,80 0,62.09139 0,40 C0,17.90861 17.90861,-1.42108547e-14 40,-1.42108547e-14 Z M40,5 C20.6700338,5 5,20.6700338 5,40 C5,59.3299662 20.6700338,75 40,75 C59.3299662,75 75,59.3299662 75,40 C75,20.6700338 59.3299662,5 40,5 Z M37.5,32.5 C40.0989871,32.5 42.2348289,34.4829603 42.4771114,37.0184666 L42.5,37.5 L42.5,50 C42.5,51.2656526 43.4405129,52.3116365 44.6607648,52.4771779 L45,52.5 L47.5,52.5 C48.8807119,52.5 50,53.6192881 50,55 C50,56.2656526 49.0594871,57.3116365 47.8392352,57.4771779 L47.5,57.5 L45,57.5 C41.0304534,57.5 37.7811836,54.416128 37.5173027,50.513496 L37.5,50 L37.5,37.5 L35,37.5 C33.6192881,37.5 32.5,36.3807119 32.5,35 C32.5,33.7343474 33.4405129,32.6883635 34.6607648,32.5228221 L35,32.5 L37.5,32.5 Z M38.75,20 L39.1586038,20.0220045 C41.0374635,20.2256005 42.5,21.8170034 42.5,23.75 C42.5,25.8210678 40.8210678,27.5 38.75,27.5 C36.6789322,27.5 35,25.8210678 35,23.75 C35,21.8170034 36.4625365,20.2256005 38.3413962,20.0220045 L38.75,20 Z" id="-Icon-Color"></path>
                </g>
                <g id="Black-S" transform="translate(2393.500000, -0.000000)">
                    <path d="M31,-7.10542736e-15 C48.1208272,-7.10542736e-15 62,13.8791728 62,31 C62,48.1208272 48.1208272,62 31,62 C13.8791728,62 0,48.1208272 0,31 C0,13.8791728 13.8791728,-7.10542736e-15 31,-7.10542736e-15 Z M31,3.875 C16.0192762,3.875 3.875,16.0192762 3.875,31 C3.875,45.9807238 16.0192762,58.125 31,58.125 C45.9807238,58.125 58.125,45.9807238 58.125,31 C58.125,16.0192762 45.9807238,3.875 31,3.875 Z M29.0625,25.1875 C31.076715,25.1875 32.7319924,26.7242942 32.9197613,28.6893116 L32.9375,29.0625 L32.9375,38.75 C32.9375,39.7308807 33.6663975,40.5415183 34.6120927,40.6698129 L34.875,40.6875 L36.8125,40.6875 C37.8825517,40.6875 38.75,41.5549483 38.75,42.625 C38.75,43.6058807 38.0211025,44.4165183 37.0754073,44.5448129 L36.8125,44.5625 L34.875,44.5625 C31.7986014,44.5625 29.2804173,42.1724992 29.0759096,39.1479594 L29.0625,38.75 L29.0625,29.0625 L27.125,29.0625 C26.0549483,29.0625 25.1875,28.1950517 25.1875,27.125 C25.1875,26.1441193 25.9163975,25.3334817 26.8620927,25.2051871 L27.125,25.1875 L29.0625,25.1875 Z M30.03125,15.5 L30.347918,15.5170535 C31.8040342,15.6748403 32.9375,16.9081776 32.9375,18.40625 C32.9375,20.0113276 31.6363276,21.3125 30.03125,21.3125 C28.4261724,21.3125 27.125,20.0113276 27.125,18.40625 C27.125,16.9081776 28.2584658,15.6748403 29.714582,15.5170535 L30.03125,15.5 Z" id="-Icon-Color"></path>
                </g>
                <g id="Heavy-S" transform="translate(2097.500000, -0.000000)">
                    <path d="M31,-7.10542736e-15 C48.1208272,-7.10542736e-15 62,13.8791728 62,31 C62,48.1208272 48.1208272,62 31,62 C13.8791728,62 0,48.1208272 0,31 C0,13.8791728 13.8791728,-7.10542736e-15 31,-7.10542736e-15 Z M31,3.875 C16.0192762,3.875 3.875,16.0192762 3.875,31 C3.875,45.9807238 16.0192762,58.125 31,58.125 C45.9807238,58.125 58.125,45.9807238 58.125,31 C58.125,16.0192762 45.9807238,3.875 31,3.875 Z M29.0625,25.1875 C31.076715,25.1875 32.7319924,26.7242942 32.9197613,28.6893116 L32.9375,29.0625 L32.9375,38.75 C32.9375,39.7308807 33.6663975,40.5415183 34.6120927,40.6698129 L34.875,40.6875 L36.8125,40.6875 C37.8825517,40.6875 38.75,41.5549483 38.75,42.625 C38.75,43.6058807 38.0211025,44.4165183 37.0754073,44.5448129 L36.8125,44.5625 L34.875,44.5625 C31.7986014,44.5625 29.2804173,42.1724992 29.0759096,39.1479594 L29.0625,38.75 L29.0625,29.0625 L27.125,29.0625 C26.0549483,29.0625 25.1875,28.1950517 25.1875,27.125 C25.1875,26.1441193 25.9163975,25.3334817 26.8620927,25.2051871 L27.125,25.1875 L29.0625,25.1875 Z M30.03125,15.5 L30.347918,15.5170535 C31.8040342,15.6748403 32.9375,16.9081776 32.9375,18.40625 C32.9375,20.0113276 31.6363276,21.3125 30.03125,21.3125 C28.4261724,21.3125 27.125,20.0113276 27.125,18.40625 C27.125,16.9081776 28.2584658,15.6748403 29.714582,15.5170535 L30.03125,15.5 Z" id="-Icon-Color"></path>
                </g>
                <g id="Bold-S" transform="translate(1800.500000, -0.000000)">
                    <path d="M31,-7.10542736e-15 C48.1208272,-7.10542736e-15 62,13.8791728 62,31 C62,48.1208272 48.1208272,62 31,62 C13.8791728,62 0,48.1208272 0,31 C0,13.8791728 13.8791728,-7.10542736e-15 31,-7.10542736e-15 Z M31,3.875 C16.0192762,3.875 3.875,16.0192762 3.875,31 C3.875,45.9807238 16.0192762,58.125 31,58.125 C45.9807238,58.125 58.125,45.9807238 58.125,31 C58.125,16.0192762 45.9807238,3.875 31,3.875 Z M29.0625,25.1875 C31.076715,25.1875 32.7319924,26.7242942 32.9197613,28.6893116 L32.9375,29.0625 L32.9375,38.75 C32.9375,39.7308807 33.6663975,40.5415183 34.6120927,40.6698129 L34.875,40.6875 L36.8125,40.6875 C37.8825517,40.6875 38.75,41.5549483 38.75,42.625 C38.75,43.6058807 38.0211025,44.4165183 37.0754073,44.5448129 L36.8125,44.5625 L34.875,44.5625 C31.7986014,44.5625 29.2804173,42.1724992 29.0759096,39.1479594 L29.0625,38.75 L29.0625,29.0625 L27.125,29.0625 C26.0549483,29.0625 25.1875,28.1950517 25.1875,27.125 C25.1875,26.1441193 25.9163975,25.3334817 26.8620927,25.2051871 L27.125,25.1875 L29.0625,25.1875 Z M30.03125,15.5 L30.347918,15.5170535 C31.8040342,15.6748403 32.9375,16.9081776 32.9375,18.40625 C32.9375,20.0113276 31.6363276,21.3125 30.03125,21.3125 C28.4261724,21.3125 27.125,20.0113276 27.125,18.40625 C27.125,16.9081776 28.2584658,15.6748403 29.714582,15.5170535 L30.03125,15.5 Z" id="-Icon-Color"></path>
                </g>
                <g id="Semibold-S" transform="translate(1503.500000, -0.000000)">
                    <path d="M31,-7.10542736e-15 C48.1208272,-7.10542736e-15 62,13.8791728 62,31 C62,48.1208272 48.1208272,62 31,62 C13.8791728,62 0,48.1208272 0,31 C0,13.8791728 13.8791728,-7.10542736e-15 31,-7.10542736e-15 Z M31,3.875 C16.0192762,3.875 3.875,16.0192762 3.875,31 C3.875,45.9807238 16.0192762,58.125 31,58.125 C45.9807238,58.125 58.125,45.9807238 58.125,31 C58.125,16.0192762 45.9807238,3.875 31,3.875 Z M29.0625,25.1875 C31.076715,25.1875 32.7319924,26.7242942 32.9197613,28.6893116 L32.9375,29.0625 L32.9375,38.75 C32.9375,39.7308807 33.6663975,40.5415183 34.6120927,40.6698129 L34.875,40.6875 L36.8125,40.6875 C37.8825517,40.6875 38.75,41.5549483 38.75,42.625 C38.75,43.6058807 38.0211025,44.4165183 37.0754073,44.5448129 L36.8125,44.5625 L34.875,44.5625 C31.7986014,44.5625 29.2804173,42.1724992 29.0759096,39.1479594 L29.0625,38.75 L29.0625,29.0625 L27.125,29.0625 C26.0549483,29.0625 25.1875,28.1950517 25.1875,27.125 C25.1875,26.1441193 25.9163975,25.3334817 26.8620927,25.2051871 L27.125,25.1875 L29.0625,25.1875 Z M30.03125,15.5 L30.347918,15.5170535 C31.8040342,15.6748403 32.9375,16.9081776 32.9375,18.40625 C32.9375,20.0113276 31.6363276,21.3125 30.03125,21.3125 C28.4261724,21.3125 27.125,20.0113276 27.125,18.40625 C27.125,16.9081776 28.2584658,15.6748403 29.714582,15.5170535 L30.03125,15.5 Z" id="-Icon-Color"></path>
                </g>
                <g id="Medium-S" transform="translate(1207.500000, -0.000000)">
                    <path d="M31,-7.10542736e-15 C48.1208272,-7.10542736e-15 62,13.8791728 62,31 C62,48.1208272 48.1208272,62 31,62 C13.8791728,62 0,48.1208272 0,31 C0,13.8791728 13.8791728,-7.10542736e-15 31,-7.10542736e-15 Z M31,3.875 C16.0192762,3.875 3.875,16.0192762 3.875,31 C3.875,45.9807238 16.0192762,58.125 31,58.125 C45.9807238,58.125 58.125,45.9807238 58.125,31 C58.125,16.0192762 45.9807238,3.875 31,3.875 Z M29.0625,25.1875 C31.076715,25.1875 32.7319924,26.7242942 32.9197613,28.6893116 L32.9375,29.0625 L32.9375,38.75 C32.9375,39.7308807 33.6663975,40.5415183 34.6120927,40.6698129 L34.875,40.6875 L36.8125,40.6875 C37.8825517,40.6875 38.75,41.5549483 38.75,42.625 C38.75,43.6058807 38.0211025,44.4165183 37.0754073,44.5448129 L36.8125,44.5625 L34.875,44.5625 C31.7986014,44.5625 29.2804173,42.1724992 29.0759096,39.1479594 L29.0625,38.75 L29.0625,29.0625 L27.125,29.0625 C26.0549483,29.0625 25.1875,28.1950517 25.1875,27.125 C25.1875,26.1441193 25.9163975,25.3334817 26.8620927,25.2051871 L27.125,25.1875 L29.0625,25.1875 Z M30.03125,15.5 L30.347918,15.5170535 C31.8040342,15.6748403 32.9375,16.9081776 32.9375,18.40625 C32.9375,20.0113276 31.6363276,21.3125 30.03125,21.3125 C28.4261724,21.3125 27.125,20.0113276 27.125,18.40625 C27.125,16.9081776 28.2584658,15.6748403 29.714582,15.5170535 L30.03125,15.5 Z" id="-Icon-Color"></path>
                </g>
                <g id="Regular-S" transform="translate(910.500000, -0.000000)">
                    <path d="M31,-7.10542736e-15 C48.1208272,-7.10542736e-15 62,13.8791728 62,31 C62,48.1208272 48.1208272,62 31,62 C13.8791728,62 0,48.1208272 0,31 C0,13.8791728 13.8791728,-7.10542736e-15 31,-7.10542736e-15 Z M31,3.875 C16.0192762,3.875 3.875,16.0192762 3.875,31 C3.875,45.9807238 16.0192762,58.125 31,58.125 C45.9807238,58.125 58.125,45.9807238 58.125,31 C58.125,16.0192762 45.9807238,3.875 31,3.875 Z M29.0625,25.1875 C31.076715,25.1875 32.7319924,26.7242942 32.9197613,28.6893116 L32.9375,29.0625 L32.9375,38.75 C32.9375,39.7308807 33.6663975,40.5415183 34.6120927,40.6698129 L34.875,40.6875 L36.8125,40.6875 C37.8825517,40.6875 38.75,41.5549483 38.75,42.625 C38.75,43.6058807 38.0211025,44.4165183 37.0754073,44.5448129 L36.8125,44.5625 L34.875,44.5625 C31.7986014,44.5625 29.2804173,42.1724992 29.0759096,39.1479594 L29.0625,38.75 L29.0625,29.0625 L27.125,29.0625 C26.0549483,29.0625 25.1875,28.1950517 25.1875,27.125 C25.1875,26.1441193 25.9163975,25.3334817 26.8620927,25.2051871 L27.125,25.1875 L29.0625,25.1875 Z M30.03125,15.5 L30.347918,15.5170535 C31.8040342,15.6748403 32.9375,16.9081776 32.9375,18.40625 C32.9375,20.0113276 31.6363276,21.3125 30.03125,21.3125 C28.4261724,21.3125 27.125,20.0113276 27.125,18.40625 C27.125,16.9081776 28.2584658,15.6748403 29.714582,15.5170535 L30.03125,15.5 Z" id="-Icon-Color"></path>
                </g>
                <g id="Light-S" transform="translate(613.500000, -0.000000)">
                    <path d="M31,-7.10542736e-15 C48.1208272,-7.10542736e-15 62,13.8791728 62,31 C62,48.1208272 48.1208272,62 31,62 C13.8791728,62 0,48.1208272 0,31 C0,13.8791728 13.8791728,-7.10542736e-15 31,-7.10542736e-15 Z M31,3.875 C16.0192762,3.875 3.875,16.0192762 3.875,31 C3.875,45.9807238 16.0192762,58.125 31,58.125 C45.9807238,58.125 58.125,45.9807238 58.125,31 C58.125,16.0192762 45.9807238,3.875 31,3.875 Z M29.0625,25.1875 C31.076715,25.1875 32.7319924,26.7242942 32.9197613,28.6893116 L32.9375,29.0625 L32.9375,38.75 C32.9375,39.7308807 33.6663975,40.5415183 34.6120927,40.6698129 L34.875,40.6875 L36.8125,40.6875 C37.8825517,40.6875 38.75,41.5549483 38.75,42.625 C38.75,43.6058807 38.0211025,44.4165183 37.0754073,44.5448129 L36.8125,44.5625 L34.875,44.5625 C31.7986014,44.5625 29.2804173,42.1724992 29.0759096,39.1479594 L29.0625,38.75 L29.0625,29.0625 L27.125,29.0625 C26.0549483,29.0625 25.1875,28.1950517 25.1875,27.125 C25.1875,26.1441193 25.9163975,25.3334817 26.8620927,25.2051871 L27.125,25.1875 L29.0625,25.1875 Z M30.03125,15.5 L30.347918,15.5170535 C31.8040342,15.6748403 32.9375,16.9081776 32.9375,18.40625 C32.9375,20.0113276 31.6363276,21.3125 30.03125,21.3125 C28.4261724,21.3125 27.125,20.0113276 27.125,18.40625 C27.125,16.9081776 28.2584658,15.6748403 29.714582,15.5170535 L30.03125,15.5 Z" id="-Icon-Color"></path>
                </g>
                <g id="Thin-S" transform="translate(316.500000, -0.000000)">
                    <path d="M31,-7.10542736e-15 C48.1208272,-7.10542736e-15 62,13.8791728 62,31 C62,48.1208272 48.1208272,62 31,62 C13.8791728,62 0,48.1208272 0,31 C0,13.8791728 13.8791728,-7.10542736e-15 31,-7.10542736e-15 Z M31,3.875 C16.0192762,3.875 3.875,16.0192762 3.875,31 C3.875,45.9807238 16.0192762,58.125 31,58.125 C45.9807238,58.125 58.125,45.9807238 58.125,31 C58.125,16.0192762 45.9807238,3.875 31,3.875 Z M29.0625,25.1875 C31.076715,25.1875 32.7319924,26.7242942 32.9197613,28.6893116 L32.9375,29.0625 L32.9375,38.75 C32.9375,39.7308807 33.6663975,40.5415183 34.6120927,40.6698129 L34.875,40.6875 L36.8125,40.6875 C37.8825517,40.6875 38.75,41.5549483 38.75,42.625 C38.75,43.6058807 38.0211025,44.4165183 37.0754073,44.5448129 L36.8125,44.5625 L34.875,44.5625 C31.7986014,44.5625 29.2804173,42.1724992 29.0759096,39.1479594 L29.0625,38.75 L29.0625,29.0625 L27.125,29.0625 C26.0549483,29.0625 25.1875,28.1950517 25.1875,27.125 C25.1875,26.1441193 25.9163975,25.3334817 26.8620927,25.2051871 L27.125,25.1875 L29.0625,25.1875 Z M30.03125,15.5 L30.347918,15.5170535 C31.8040342,15.6748403 32.9375,16.9081776 32.9375,18.40625 C32.9375,20.0113276 31.6363276,21.3125 30.03125,21.3125 C28.4261724,21.3125 27.125,20.0113276 27.125,18.40625 C27.125,16.9081776 28.2584658,15.6748403 29.714582,15.5170535 L30.03125,15.5 Z" id="-Icon-Color"></path>
                </g>
                <g id="Ultralight-S" transform="translate(20.500000, -0.000000)">
                    <path d="M31,-7.10542736e-15 C48.1208272,-7.10542736e-15 62,13.8791728 62,31 C62,48.1208272 48.1208272,62 31,62 C13.8791728,62 0,48.1208272 0,31 C0,13.8791728 13.8791728,-7.10542736e-15 31,-7.10542736e-15 Z M31,3.875 C16.0192762,3.875 3.875,16.0192762 3.875,31 C3.875,45.9807238 16.0192762,58.125 31,58.125 C45.9807238,58.125 58.125,45.9807238 58.125,31 C58.125,16.0192762 45.9807238,3.875 31,3.875 Z M29.0625,25.1875 C31.076715,25.1875 32.7319924,26.7242942 32.9197613,28.6893116 L32.9375,29.0625 L32.9375,38.75 C32.9375,39.7308807 33.6663975,40.5415183 34.6120927,40.6698129 L34.875,40.6875 L36.8125,40.6875 C37.8825517,40.6875 38.75,41.5549483 38.75,42.625 C38.75,43.6058807 38.0211025,44.4165183 37.0754073,44.5448129 L36.8125,44.5625 L34.875,44.5625 C31.7986014,44.5625 29.2804173,42.1724992 29.0759096,39.1479594 L29.0625,38.75 L29.0625,29.0625 L27.125,29.0625 C26.0549483,29.0625 25.1875,28.1950517 25.1875,27.125 C25.1875,26.1441193 25.9163975,25.3334817 26.8620927,25.2051871 L27.125,25.1875 L29.0625,25.1875 Z M30.03125,15.5 L30.347918,15.5170535 C31.8040342,15.6748403 32.9375,16.9081776 32.9375,18.40625 C32.9375,20.0113276 31.6363276,21.3125 30.03125,21.3125 C28.4261724,21.3125 27.125,20.0113276 27.125,18.40625 C27.125,16.9081776 28.2584658,15.6748403 29.714582,15.5170535 L30.03125,15.5 Z" id="-Icon-Color"></path>
                </g>
            </g>
        </g>
    </g>
</svg>